<mxfile host="app.diagrams.net" agent="Mozilla/5.0 (Macintosh; Intel Mac OS X 10_15_7) AppleWebKit/537.36 (KHTML, like Gecko) Chrome/135.0.0.0 Safari/537.36" version="26.2.15">
  <diagram name="第 1 页" id="iC6CyAPzZbLOwijpjETG">
    <mxGraphModel dx="1234" dy="774" grid="1" gridSize="10" guides="1" tooltips="1" connect="1" arrows="1" fold="1" page="1" pageScale="1" pageWidth="827" pageHeight="1169" math="0" shadow="0">
      <root>
        <mxCell id="0" />
        <mxCell id="1" parent="0" />
        <mxCell id="7f5QQxMuSp9llhQfqBcf-1" value="DMA" style="rounded=1;whiteSpace=wrap;html=1;fontStyle=1" parent="1" vertex="1">
          <mxGeometry x="19" y="340" width="100" height="40" as="geometry" />
        </mxCell>
        <mxCell id="kze3nuzcmNMjR4mC93Fa-1" value="IOMMU&lt;div&gt;VT-d&lt;/div&gt;" style="rounded=1;whiteSpace=wrap;html=1;fontStyle=1" vertex="1" parent="1">
          <mxGeometry x="481" y="430" width="100" height="40" as="geometry" />
        </mxCell>
        <mxCell id="kze3nuzcmNMjR4mC93Fa-2" value="PCIe" style="rounded=1;whiteSpace=wrap;html=1;fontStyle=1" vertex="1" parent="1">
          <mxGeometry x="239" y="210" width="100" height="40" as="geometry" />
        </mxCell>
        <mxCell id="kze3nuzcmNMjR4mC93Fa-3" value="" style="endArrow=none;html=1;rounded=0;entryX=0;entryY=0.5;entryDx=0;entryDy=0;exitX=1;exitY=0.25;exitDx=0;exitDy=0;" edge="1" parent="1" source="7f5QQxMuSp9llhQfqBcf-1" target="kze3nuzcmNMjR4mC93Fa-2">
          <mxGeometry width="50" height="50" relative="1" as="geometry">
            <mxPoint x="86" y="300" as="sourcePoint" />
            <mxPoint x="136" y="250" as="targetPoint" />
          </mxGeometry>
        </mxCell>
        <mxCell id="kze3nuzcmNMjR4mC93Fa-4" value="&lt;font style=&quot;font-size: 14px;&quot;&gt;总线带宽&lt;/font&gt;&lt;div&gt;&lt;font style=&quot;font-size: 14px;&quot;&gt;BDF&lt;/font&gt;&lt;/div&gt;" style="edgeLabel;html=1;align=center;verticalAlign=middle;resizable=0;points=[];" vertex="1" connectable="0" parent="kze3nuzcmNMjR4mC93Fa-3">
          <mxGeometry x="0.2558" y="4" relative="1" as="geometry">
            <mxPoint x="-12" y="18" as="offset" />
          </mxGeometry>
        </mxCell>
        <mxCell id="kze3nuzcmNMjR4mC93Fa-5" value="" style="endArrow=none;html=1;rounded=0;exitX=0.5;exitY=1;exitDx=0;exitDy=0;entryX=0;entryY=0.5;entryDx=0;entryDy=0;edgeStyle=orthogonalEdgeStyle;" edge="1" parent="1" source="7f5QQxMuSp9llhQfqBcf-1" target="kze3nuzcmNMjR4mC93Fa-1">
          <mxGeometry width="50" height="50" relative="1" as="geometry">
            <mxPoint x="31" y="280" as="sourcePoint" />
            <mxPoint x="481" y="430" as="targetPoint" />
          </mxGeometry>
        </mxCell>
        <mxCell id="kze3nuzcmNMjR4mC93Fa-6" value="&lt;font style=&quot;font-size: 14px;&quot;&gt;安全隔离&lt;/font&gt;&lt;div&gt;&lt;font size=&quot;3&quot;&gt;IOVA&lt;/font&gt;&lt;/div&gt;" style="edgeLabel;html=1;align=center;verticalAlign=middle;resizable=0;points=[];" vertex="1" connectable="0" parent="kze3nuzcmNMjR4mC93Fa-5">
          <mxGeometry x="0.0615" relative="1" as="geometry">
            <mxPoint as="offset" />
          </mxGeometry>
        </mxCell>
        <mxCell id="kze3nuzcmNMjR4mC93Fa-8" value="ARI" style="rounded=1;whiteSpace=wrap;html=1;fontStyle=1" vertex="1" parent="1">
          <mxGeometry x="481" y="230" width="100" height="40" as="geometry" />
        </mxCell>
        <mxCell id="kze3nuzcmNMjR4mC93Fa-9" value="ATS" style="rounded=1;whiteSpace=wrap;html=1;fontStyle=1" vertex="1" parent="1">
          <mxGeometry x="481" y="360" width="100" height="40" as="geometry" />
        </mxCell>
        <mxCell id="kze3nuzcmNMjR4mC93Fa-10" value="ACS" style="rounded=1;whiteSpace=wrap;html=1;fontStyle=1" vertex="1" parent="1">
          <mxGeometry x="481" y="290" width="100" height="40" as="geometry" />
        </mxCell>
        <mxCell id="kze3nuzcmNMjR4mC93Fa-12" value="" style="endArrow=none;html=1;rounded=0;entryX=0;entryY=0.5;entryDx=0;entryDy=0;" edge="1" parent="1" target="kze3nuzcmNMjR4mC93Fa-8">
          <mxGeometry width="50" height="50" relative="1" as="geometry">
            <mxPoint x="339" y="230" as="sourcePoint" />
            <mxPoint x="449" y="250" as="targetPoint" />
          </mxGeometry>
        </mxCell>
        <mxCell id="kze3nuzcmNMjR4mC93Fa-13" value="" style="endArrow=none;html=1;rounded=0;entryX=0;entryY=0.5;entryDx=0;entryDy=0;exitX=1;exitY=0.5;exitDx=0;exitDy=0;" edge="1" parent="1" source="kze3nuzcmNMjR4mC93Fa-2" target="kze3nuzcmNMjR4mC93Fa-10">
          <mxGeometry width="50" height="50" relative="1" as="geometry">
            <mxPoint x="399" y="299.5" as="sourcePoint" />
            <mxPoint x="471" y="300" as="targetPoint" />
          </mxGeometry>
        </mxCell>
        <mxCell id="kze3nuzcmNMjR4mC93Fa-15" value="" style="endArrow=none;html=1;rounded=0;" edge="1" parent="1">
          <mxGeometry width="50" height="50" relative="1" as="geometry">
            <mxPoint x="339" y="230" as="sourcePoint" />
            <mxPoint x="479" y="380" as="targetPoint" />
          </mxGeometry>
        </mxCell>
        <mxCell id="kze3nuzcmNMjR4mC93Fa-17" value="SR-IOV" style="rounded=1;whiteSpace=wrap;html=1;fontStyle=1" vertex="1" parent="1">
          <mxGeometry x="630" y="330" width="100" height="40" as="geometry" />
        </mxCell>
        <mxCell id="kze3nuzcmNMjR4mC93Fa-23" style="edgeStyle=orthogonalEdgeStyle;rounded=0;orthogonalLoop=1;jettySize=auto;html=1;exitX=0.1;exitY=0.5;exitDx=0;exitDy=0;exitPerimeter=0;" edge="1" parent="1" source="kze3nuzcmNMjR4mC93Fa-18">
          <mxGeometry relative="1" as="geometry">
            <mxPoint x="619" y="350" as="targetPoint" />
            <Array as="points">
              <mxPoint x="619" y="350" />
              <mxPoint x="619" y="350" />
            </Array>
          </mxGeometry>
        </mxCell>
        <mxCell id="kze3nuzcmNMjR4mC93Fa-18" value="" style="shape=curlyBracket;whiteSpace=wrap;html=1;rounded=1;flipH=1;labelPosition=right;verticalLabelPosition=middle;align=left;verticalAlign=middle;" vertex="1" parent="1">
          <mxGeometry x="582" y="240" width="40" height="220" as="geometry" />
        </mxCell>
        <mxCell id="kze3nuzcmNMjR4mC93Fa-19" value="VFIO" style="rounded=1;whiteSpace=wrap;html=1;fontStyle=1" vertex="1" parent="1">
          <mxGeometry x="482" y="620" width="100" height="40" as="geometry" />
        </mxCell>
        <mxCell id="kze3nuzcmNMjR4mC93Fa-20" value="" style="endArrow=none;html=1;rounded=0;entryX=0.5;entryY=1;entryDx=0;entryDy=0;edgeStyle=orthogonalEdgeStyle;exitX=1;exitY=0.5;exitDx=0;exitDy=0;" edge="1" parent="1" source="kze3nuzcmNMjR4mC93Fa-19" target="kze3nuzcmNMjR4mC93Fa-17">
          <mxGeometry width="50" height="50" relative="1" as="geometry">
            <mxPoint x="650" y="590" as="sourcePoint" />
            <mxPoint x="659" y="520" as="targetPoint" />
            <Array as="points">
              <mxPoint x="680" y="640" />
            </Array>
          </mxGeometry>
        </mxCell>
        <mxCell id="kze3nuzcmNMjR4mC93Fa-26" value="&lt;font style=&quot;font-size: 14px;&quot;&gt;VF(virtual function)&lt;/font&gt;" style="edgeLabel;html=1;align=center;verticalAlign=middle;resizable=0;points=[];" vertex="1" connectable="0" parent="kze3nuzcmNMjR4mC93Fa-20">
          <mxGeometry x="-0.0078" y="-3" relative="1" as="geometry">
            <mxPoint x="17" y="-46" as="offset" />
          </mxGeometry>
        </mxCell>
        <mxCell id="kze3nuzcmNMjR4mC93Fa-21" value="" style="endArrow=none;html=1;rounded=0;entryX=0.5;entryY=1;entryDx=0;entryDy=0;exitX=0.5;exitY=0;exitDx=0;exitDy=0;" edge="1" parent="1" source="kze3nuzcmNMjR4mC93Fa-19" target="kze3nuzcmNMjR4mC93Fa-1">
          <mxGeometry width="50" height="50" relative="1" as="geometry">
            <mxPoint x="540" y="600" as="sourcePoint" />
            <mxPoint x="499" y="540" as="targetPoint" />
          </mxGeometry>
        </mxCell>
        <mxCell id="kze3nuzcmNMjR4mC93Fa-24" value="直通,安全隔离" style="edgeLabel;html=1;align=center;verticalAlign=middle;resizable=0;points=[];fontSize=14;" vertex="1" connectable="0" parent="kze3nuzcmNMjR4mC93Fa-21">
          <mxGeometry x="0.1965" y="3" relative="1" as="geometry">
            <mxPoint as="offset" />
          </mxGeometry>
        </mxCell>
      </root>
    </mxGraphModel>
  </diagram>
</mxfile>
